<svg width="30" height="23" viewBox="0 0 30 23" fill="none" xmlns="http://www.w3.org/2000/svg">
<path d="M29.0867 8.31199C28.9151 8.31199 28.7432 8.24623 28.6124 8.11521L21.811 1.31421C21.5493 1.05217 21.5493 0.627511 21.811 0.365477C22.0731 0.103597 22.4979 0.103597 22.7599 0.365477L29.5603 7.16614C29.8223 7.42802 29.8223 7.85268 29.5603 8.11471C29.4303 8.24571 29.2603 8.31171 29.0869 8.31171" fill="#48494D"/>
<path d="M27.4739 9.92477C27.3024 9.92477 27.1305 9.85918 26.9996 9.72816L20.199 2.92749C19.9369 2.66545 19.9369 2.24079 20.199 1.97876C20.461 1.71672 20.8858 1.71671 21.1479 1.97876L27.9482 8.77942C28.2103 9.04147 28.2103 9.46612 27.9482 9.72816C27.8172 9.85916 27.6455 9.92482 27.4739 9.92482" fill="#48494D"/>
<path d="M25.9287 11.4701C25.7569 11.4701 25.5853 11.4046 25.4541 11.2734L18.6538 4.47278C18.3918 4.21074 18.3918 3.78608 18.6538 3.52405C18.9159 3.26217 19.3403 3.26217 19.6024 3.52405L26.403 10.3247C26.6651 10.5868 26.6651 11.0115 26.403 11.2733C26.2717 11.4046 26.1004 11.4699 25.9287 11.4699" fill="#48494D"/>
<path d="M17.5467 9.25638C17.3748 9.25638 17.2033 9.19063 17.0724 9.05961C16.8103 8.79773 16.8103 8.37307 17.0724 8.11104L19.95 5.23328C20.212 4.9714 20.6365 4.9714 20.8986 5.23328C21.1606 5.49532 21.1606 5.91998 20.8986 6.18201L18.0206 9.05967C17.8899 9.19067 17.7179 9.25634 17.5466 9.25634" fill="#48494D"/>
<path d="M21.3415 13.0514C21.1696 13.0514 20.9981 12.986 20.8672 12.8548C20.6051 12.5927 20.6051 12.1682 20.8672 11.9062L23.7448 9.02844C24.0068 8.76656 24.4316 8.76656 24.6937 9.02844C24.9557 9.29049 24.9557 9.71514 24.6937 9.97718L21.8158 12.8548C21.6851 12.9861 21.5131 13.0514 21.3414 13.0514" fill="#48494D"/>
<path d="M27.1685 4.6347C26.6506 5.15277 25.8108 5.15277 25.2928 4.6347C24.7746 4.11663 24.7746 3.27697 25.2928 2.75903C25.8107 2.24097 26.6506 2.24097 27.1685 2.75903C27.6865 3.27703 27.6865 4.1167 27.1685 4.6347Z" fill="#48494D"/>
<path d="M0.913031 8.3044C0.741318 8.3044 0.569598 8.23865 0.438598 8.10763C0.176717 7.84575 0.176717 7.4211 0.438598 7.15906L7.23926 0.358398C7.50147 0.0963544 7.92626 0.0963544 8.18816 0.358398C8.45021 0.620278 8.45021 1.04493 8.18816 1.30696L1.38716 8.10763C1.25616 8.23829 1.0845 8.3043 0.912831 8.3043" fill="#48494D"/>
<path d="M2.52606 9.91708C2.35434 9.91708 2.18279 9.85132 2.05176 9.7203C1.78971 9.45842 1.78971 9.0336 2.05176 8.77173L8.85242 1.97107C9.11447 1.70919 9.53913 1.70919 9.80116 1.97107C10.063 2.23311 10.063 2.65777 9.80116 2.9198L3.00049 9.72047C2.86949 9.85147 2.69782 9.91713 2.52616 9.91713" fill="#48494D"/>
<path d="M4.07135 11.4627C3.8998 11.4627 3.72808 11.397 3.59705 11.2661C3.335 11.0041 3.335 10.5794 3.59705 10.3174L10.3977 3.51672C10.6598 3.25468 11.0844 3.25468 11.3464 3.51672C11.6085 3.77877 11.6085 4.20342 11.3464 4.46529L4.54611 11.266C4.41511 11.3966 4.24311 11.4626 4.07145 11.4626" fill="#48494D"/>
<path d="M8.65827 13.0441C8.48656 13.0441 8.31484 12.9783 8.18384 12.8475L5.30591 9.96968C5.04386 9.7078 5.04386 9.28298 5.30591 9.02112C5.56828 8.75907 5.99291 8.75907 6.25497 9.02112L9.13257 11.8989C9.39462 12.1606 9.39462 12.5857 9.13257 12.8475C9.00157 12.9785 8.82991 13.0441 8.65824 13.0441" fill="#48494D"/>
<path d="M12.4537 9.24878C12.282 9.24878 12.1103 9.18318 11.9793 9.05216L9.10132 6.1744C8.83927 5.91252 8.83927 5.4877 9.10132 5.22583C9.36369 4.96379 9.78832 4.96379 10.0504 5.22583L12.928 8.10343C13.19 8.36547 13.19 8.79013 12.928 9.05216C12.797 9.18316 12.625 9.24883 12.4537 9.24883" fill="#48494D"/>
<path d="M4.7077 2.75141C5.2256 3.26931 5.2256 4.10901 4.7077 4.62708C4.18963 5.14498 3.34996 5.14498 2.83203 4.62708C2.31396 4.10901 2.31396 3.26935 2.83203 2.75141C3.3497 2.23342 4.18936 2.23342 4.7077 2.75141Z" fill="#48494D"/>
<path d="M15.0041 22.418C13.084 22.418 11.1638 21.6872 9.70214 20.2253C6.77881 17.3018 6.77881 12.545 9.70214 9.62134C12.6258 6.69734 17.3828 6.69734 20.3061 9.62134C23.23 12.5448 23.23 17.3017 20.3061 20.2253C18.8441 21.6873 16.9241 22.418 15.0041 22.418V22.418ZM15.0041 8.77001C13.4273 8.77001 11.851 9.36995 10.6511 10.5703C8.25074 12.9705 8.25074 16.8763 10.6511 19.2766C13.0514 21.677 16.9568 21.677 19.3575 19.2766C21.7579 16.8766 21.7579 12.9706 19.3575 10.5703C18.1575 9.36998 16.5801 8.76998 15.0041 8.76998V8.77001ZM19.8315 19.751H19.8328H19.8314H19.8315Z" fill="#48494D"/>
<path d="M7.09027 17.5423H5.82057C4.89447 17.5423 4.14087 16.7891 4.14087 15.8626V13.9675C4.14087 13.0414 4.89444 12.2881 5.82057 12.2881H7.09027C8.01654 12.2881 8.7698 13.0414 8.7698 13.9675V15.8626C8.7698 16.789 8.01647 17.5423 7.09014 17.5423L7.09027 17.5423ZM5.82047 13.6296C5.63736 13.6296 5.48274 13.7842 5.48274 13.9675V15.8627C5.48274 16.046 5.63736 16.2003 5.82047 16.2003H7.09017C7.27343 16.2003 7.42807 16.046 7.42807 15.8627V13.9675C7.42807 13.7843 7.27344 13.6296 7.09017 13.6296H5.8205H5.82047Z" fill="#48494D"/>
</svg>
