<svg width="26" height="24" viewBox="0 0 26 24" fill="none" xmlns="http://www.w3.org/2000/svg">
<path d="M4.19434 12H21.8057" stroke="#48494D" stroke-width="1.5"/>
<path d="M4.19434 12H21.8057" stroke="#48494D" stroke-width="1.5" stroke-miterlimit="10" stroke-linecap="round" stroke-linejoin="round"/>
<path d="M13 6.52966V17.4707" stroke="#48494D" stroke-width="1.5"/>
<path d="M13 6.52966V17.4707" stroke="#48494D" stroke-width="1.5" stroke-miterlimit="10" stroke-linecap="round" stroke-linejoin="round"/>
<path d="M21.8058 6.52966V12.0003" stroke="#48494D" stroke-width="1.5"/>
<path d="M21.8058 6.52966V12.0003" stroke="#48494D" stroke-width="1.5" stroke-miterlimit="10" stroke-linecap="round" stroke-linejoin="round"/>
<path d="M4.19434 6.52966V17.4713" stroke="#48494D" stroke-width="1.5"/>
<path d="M4.19434 6.52966V17.4713" stroke="#48494D" stroke-width="1.5" stroke-miterlimit="10" stroke-linecap="round" stroke-linejoin="round"/>
<path d="M4.19426 6.5295C5.6778 6.5295 6.88046 5.32685 6.88046 3.8433C6.88046 2.35976 5.6778 1.1571 4.19426 1.1571C2.71071 1.1571 1.50806 2.35976 1.50806 3.8433C1.50806 5.32685 2.71071 6.5295 4.19426 6.5295Z" stroke="#48494D" stroke-width="1.5" stroke-miterlimit="10" stroke-linecap="round" stroke-linejoin="round"/>
<path d="M12.9998 6.5295C14.4833 6.5295 15.686 5.32685 15.686 3.8433C15.686 2.35976 14.4833 1.1571 12.9998 1.1571C11.5163 1.1571 10.3136 2.35976 10.3136 3.8433C10.3136 5.32685 11.5163 6.5295 12.9998 6.5295Z" stroke="#48494D" stroke-width="1.5" stroke-miterlimit="10" stroke-linecap="round" stroke-linejoin="round"/>
<path d="M21.8061 6.5295C23.2896 6.5295 24.4923 5.32685 24.4923 3.8433C24.4923 2.35976 23.2896 1.1571 21.8061 1.1571C20.3225 1.1571 19.1199 2.35976 19.1199 3.8433C19.1199 5.32685 20.3225 6.5295 21.8061 6.5295Z" stroke="#48494D" stroke-width="1.5" stroke-miterlimit="10" stroke-linecap="round" stroke-linejoin="round"/>
<path d="M4.19426 22.8429C5.6778 22.8429 6.88046 21.6402 6.88046 20.1567C6.88046 18.6731 5.6778 17.4705 4.19426 17.4705C2.71071 17.4705 1.50806 18.6731 1.50806 20.1567C1.50806 21.6402 2.71071 22.8429 4.19426 22.8429Z" stroke="#48494D" stroke-width="1.5" stroke-miterlimit="10" stroke-linecap="round" stroke-linejoin="round"/>
<path d="M12.9998 22.8429C14.4833 22.8429 15.686 21.6402 15.686 20.1567C15.686 18.6731 14.4833 17.4705 12.9998 17.4705C11.5163 17.4705 10.3136 18.6731 10.3136 20.1567C10.3136 21.6402 11.5163 22.8429 12.9998 22.8429Z" stroke="#48494D" stroke-width="1.5" stroke-miterlimit="10" stroke-linecap="round" stroke-linejoin="round"/>
</svg>
